<svg version="1.2" xmlns="http://www.w3.org/2000/svg" viewBox="0 0 4430 4430" width="4430" height="4430">
	<title>logo-svg</title>
	<style>
		.s0 { fill: #ead2ac } 
	</style>
	<g id="l5trlMcSWVzGJQWlVQd90Bc">
		<g id="Layer">
			<path id="p19cyV0FDE" fill-rule="evenodd" class="s0" d="m2030 3669c-620-78-1108-529-1251-1158-26-112-36-345-20-476 25-215 98-429 201-591l29-47-57-61c-74-80-97-141-97-256 1-72 5-95 29-147 35-77 113-153 193-191 49-23 72-27 148-27 82 0 97 3 157 33 68 33 105 63 148 119l25 33 80-35c187-80 376-117 600-117 223 0 413 37 599 117l78 34 55-59c37-40 77-70 121-92 60-30 75-33 157-33 82 0 96 3 159 34 38 18 86 52 108 74 148 153 142 395-14 538l-40 36 51 88c89 156 147 320 177 505 23 140 14 399-19 540-164 693-756 1158-1460 1149-51-1-121-5-157-10zm426-109c208-36 386-108 525-212 103-77 343-311 337-329-6-18-409-153-902-300l-199-60-91 27c-50 14-95 27-101 28-5 1-39 12-75 23-36 12-239 78-452 148-292 94-388 130-388 141 0 9 55 71 123 139 231 232 460 351 767 400 130 20 318 18 456-5zm-790-1135c86-36 151-117 174-218 13-61 2-82-53-106-23-10-110-50-193-89-83-39-166-73-186-77-32-6-38-3-71 36-70 81-90 209-49 301 24 54 83 123 123 144 70 36 182 40 255 9zm1342-5c60-27 97-62 130-125 23-43 27-62 27-135 0-70-4-93-24-130-28-54-79-110-100-110-8 0-116 51-239 113l-223 112 7 40c34 207 233 318 422 235z"/>
			<path id="pGaTZzJbv" class="s0" d="m1752 3283c2-19 11-29 33-36 38-13 829-12 870 1 20 5 30 15 30 28 0 29-71 33-533 33h-403z"/>
		</g>
	</g>
</svg>